<svg xmlns="http://www.w3.org/2000/svg" xmlns:xlink="http://www.w3.org/1999/xlink" style="height: 0; position: absolute">
  <symbol id="instagram" viewBox="0 0 16 16"><path d="M8 0C5.827 0 5.555.01 4.702.048 3.85.088 3.27.222 2.76.42c-.526.204-.973.478-1.417.923-.445.444-.72.89-.923 1.417-.198.51-.333 1.09-.372 1.942C.008 5.555 0 5.827 0 8s.01 2.445.048 3.298c.04.852.174 1.433.372 1.942.204.526.478.973.923 1.417.444.445.89.72 1.417.923.51.198 1.09.333 1.942.372.853.04 1.125.048 3.298.048s2.445-.01 3.298-.048c.852-.04 1.433-.174 1.942-.372.526-.204.973-.478 1.417-.923.445-.444.72-.89.923-1.417.198-.51.333-1.09.372-1.942.04-.853.048-1.125.048-3.298s-.01-2.445-.048-3.298c-.04-.852-.174-1.433-.372-1.942-.204-.526-.478-.973-.923-1.417-.444-.445-.89-.72-1.417-.923-.51-.198-1.09-.333-1.942-.372C10.445.008 10.173 0 8 0zm0 1.44c2.136 0 2.39.01 3.233.048.78.036 1.203.166 1.485.276.374.145.64.318.92.598.28.28.453.546.598.92.11.282.24.705.276 1.485.038.844.047 1.097.047 3.233s-.01 2.39-.048 3.233c-.036.78-.166 1.203-.276 1.485-.145.374-.318.64-.598.92-.28.28-.546.453-.92.598-.282.11-.705.24-1.485.276-.844.038-1.097.047-3.233.047s-2.39-.01-3.233-.048c-.78-.036-1.203-.166-1.485-.276-.374-.145-.64-.318-.92-.598-.28-.28-.453-.546-.598-.92-.11-.282-.24-.705-.276-1.485C1.45 10.39 1.44 10.136 1.44 8s.01-2.39.048-3.233c.036-.78.166-1.203.276-1.485.145-.374.318-.64.598-.92.28-.28.546-.453.92-.598.282-.11.705-.24 1.485-.276C5.61 1.45 5.864 1.44 8 1.44zm0 2.452c-2.27 0-4.108 1.84-4.108 4.108 0 2.27 1.84 4.108 4.108 4.108 2.27 0 4.108-1.84 4.108-4.108 0-2.27-1.84-4.108-4.108-4.108zm0 6.775c-1.473 0-2.667-1.194-2.667-2.667 0-1.473 1.194-2.667 2.667-2.667 1.473 0 2.667 1.194 2.667 2.667 0 1.473-1.194 2.667-2.667 2.667zm5.23-6.937c0 .53-.43.96-.96.96s-.96-.43-.96-.96.43-.96.96-.96.96.43.96.96z"/></symbol>
  <symbol id="email" viewBox="0 0 16 11"><path fill-rule="evenodd" d="M1.33 0h13.34L8 5 1.33 0zM16 0v11H0V0l8 6 8-6z"/></symbol>
  <symbol id="phone" viewBox="0 0 122.88 122.27"><path d="M33.84,50.25c4.13,7.45,8.89,14.6,15.07,21.12c6.2,6.56,13.91,12.53,23.89,17.63c0.74,0.36,1.44,0.36,2.07,0.11 c0.95-0.36,1.92-1.15,2.87-2.1c0.74-0.74,1.66-1.92,2.62-3.21c3.84-5.05,8.59-11.32,15.3-8.18c0.15,0.07,0.26,0.15,0.41,0.21 l22.38,12.87c0.07,0.04,0.15,0.11,0.21,0.15c2.95,2.03,4.17,5.16,4.2,8.71c0,3.61-1.33,7.67-3.28,11.1 c-2.58,4.53-6.38,7.53-10.76,9.51c-4.17,1.92-8.81,2.95-13.27,3.61c-7,1.03-13.56,0.37-20.27-1.69 c-6.56-2.03-13.17-5.38-20.39-9.84l-0.53-0.34c-3.31-2.07-6.89-4.28-10.4-6.89C31.12,93.32,18.03,79.31,9.5,63.89 C2.35,50.95-1.55,36.98,0.58,23.67c1.18-7.3,4.31-13.94,9.77-18.32c4.76-3.84,11.17-5.94,19.47-5.2c0.95,0.07,1.8,0.62,2.25,1.44 l14.35,24.26c2.1,2.72,2.36,5.42,1.21,8.12c-0.95,2.21-2.87,4.25-5.49,6.15c-0.77,0.66-1.69,1.33-2.66,2.03 c-3.21,2.33-6.86,5.02-5.61,8.18L33.84,50.25L33.84,50.25L33.84,50.25z"/></symbol>
</svg>
